<?xml version="1.0" standalone="no"?>
<!DOCTYPE svg PUBLIC "-//W3C//DTD SVG 20010904//EN"
 "http://www.w3.org/TR/2001/REC-SVG-20010904/DTD/svg10.dtd">
<svg version="1.0" xmlns="http://www.w3.org/2000/svg"
 width="300.000000pt" height="300.000000pt" viewBox="0 0 300.000000 300.000000"
 preserveAspectRatio="xMidYMid meet">
<metadata>
Created by potrace 1.11, written by Peter Selinger 2001-2013
</metadata>
<g transform="translate(0.000000,300.000000) scale(0.100000,-0.100000)"
fill="#000000" stroke="none">
<path d="M420 2984 c-184 -43 -329 -175 -393 -357 l-22 -62 0 -1065 0 -1065
23 -68 c62 -179 225 -323 404 -356 36 -6 413 -10 1077 -10 1112 1 1083 -1
1199 58 137 69 229 187 280 361 3 8 6 488 7 1066 1 858 -1 1061 -12 1105 -48
192 -207 348 -399 393 -87 20 -2080 20 -2164 0z"/>
</g>
</svg>
