<svg xmlns="http://www.w3.org/2000/svg" viewBox="0 0 326 475"><style>.st0{fill:#FFFFFF;} .st1{fill:#BE9F56;} .st2{fill:#E63329;} .st3{fill:#003A78;}</style><defs><filter id="drop-shadow"><feOffset dy="10"/><feGaussianBlur stdDeviation="20" result="offset-blur"/><feFlood flood-color="#000" flood-opacity=".5" result="color"/><feComposite operator="in" in="color" in2="offset-blur" result="shadow"/><feComposite in="SourceGraphic" in2="shadow"/></filter></defs><path id="Hvit_kontur" d="M309.7 170.9c-.3-7.4-1-14.5-1.9-21.3l-.3-1.9c-.7-3.9-4-6.7-7.8-6.7-.7 0-1.4.1-2 .3l-1.7.4c-10.6 2.7-19.7 4.1-27.7 4.1-10.6 0-18.8-2.2-27.6-7.5-1.6-.9-3.2-2-5-3.3-.2-.1-.4-.3-.6-.5 20.8-4.4 36.4-22.9 36.4-45 0-25.4-20.7-46.1-46.1-46.1-6.9 0-13.5 1.6-19.4 4.3l-5.4-7.6 2-3.5h.1c4.3 0 10-2 12.5-6.3 1.8-3 1.9-6.3.4-8.9-1.4-2.4-4-3.9-6.9-3.9h-21.1c-1.5 0-8.9.2-11.9 5.1-1.5 2.3-1.6 5.1-.2 7.5.4.8 1 1.4 1.6 2h-34.9l1-1.8c.1-.2.1-.3.2-.5s.2-.5.3-.8c.1-.3.2-.6.3-.8.1-.2.1-.5.2-.7.1-.3.1-.6.1-1v-.7c0-.3 0-.6-.1-.9 0-.3-.1-.5-.1-.8v-.2c0-.2-.1-.4-.2-.5-.1-.3-.2-.5-.3-.8-.1-.3-.3-.5-.4-.8-.1-.2-.2-.4-.4-.6-.2-.3-.4-.5-.6-.7l-.5-.5c-.2-.2-.4-.4-.7-.6-.2-.2-.4-.3-.6-.5-.1-.1-.2-.1-.2-.2-.3-.2-.5-.3-.8-.4 0 0-.1 0-.1-.1-.4-.2-.9-.3-1.4-.4-.1 0-.3-.1-.4-.1-.5-.1-1-.2-1.5-.2h-18.4c-9.7 0-17.6 7.9-17.6 17.6 0 3 .8 5.8 2.1 8.3-.9 0-1.7-.1-2.6-.1-25.4 0-46.1 20.7-46.1 46.1 0 22.1 15.6 40.6 36.4 45-9.3 6.6-18.4 11.2-33.3 11.2-8 0-17-1.3-27.7-4.1l-1.7-.4c-.7-.2-1.4-.3-2-.3-4 0-7.3 2.9-7.9 7l-.2 1.6c-2.9 20.7-2.9 43.8-.1 67 3.2 26 9.9 51.8 19.8 76.7.8 2.1 1.7 4.1 2.5 6.1.9 2 1.7 4 2.6 6 8.9 19.9 20 39 32.9 56.7 1.2 1.7 2.5 3.4 3.8 5.1 1 1.4 2.1 2.7 3.1 4.1 20.4 26 45 49.2 73.4 69.1l.3.2c1.9 1.2 4.2 2.3 7 2.3 2.9 0 5.2-1.2 7.1-2.5l.2-.1.3-.2c28.2-19.8 52.7-43 73-68.8 18.7-23.9 33.8-50.1 45-77.9 9.9-24.9 16.6-50.7 19.8-76.7 1.6-12.6 2.3-25.3 2.1-37.6.1-2.6 0-5.3-.1-8z" class="st0" filter="url(#drop-shadow)"/><g id="Layer_1"><path d="M84.7 354.3c-12.7-17.4-23.4-36.1-32.1-55.7 49.7-41.7 130.2-109.1 179.7-150.6 14 8.9 31.1 14.4 63.3 6.7.9 7 1.4 14.1 1.6 21.4-44.2 37.2-154.9 130-212.5 178.2" class="st0"/><path d="M303.5 179.1c0-2.6-.1-5.3-.2-7.9-.3-7.1-.9-14-1.9-20.7l-.2-1.6c-.2-1-1-1.6-1.9-1.3l-1.7.4c-30.8 7.9-46.9 3.8-60.2-4.1-1.8-1.1-3.6-2.3-5.4-3.5-2.6-1.8-5.2-3.8-7.9-5.8-13.9-10.5-29.7-22.4-61.7-22.4s-47.8 11.9-61.7 22.4c-17.2 12.9-32 24.1-73.5 13.4l-1.7-.4c-1-.3-1.8.4-2 1.4l-.2 1.6c-2.8 20.1-2.9 42.7-.1 65.3 3.1 25.5 9.7 50.7 19.4 75.1.8 2 1.6 4 2.5 6 .8 2 1.7 3.9 2.6 5.9 8.8 19.5 19.6 38.1 32.2 55.5 1.2 1.7 2.4 3.3 3.7 5 1 1.3 2 2.7 3.1 4 20 25.5 44.2 48.3 72 67.8 3 1.9 4.4 1.8 7.2-.1.1-.1.2-.1.3-.2 27.6-19.5 51.7-42.2 71.6-67.6 18.3-23.4 33.1-49.1 44.1-76.4 9.7-24.3 16.3-49.6 19.4-75.1 1.7-12.4 2.3-24.7 2.2-36.7M48.4 288.6c-13.8-34.4-21-71.7-21-106.3 0-9.4.6-18.6 1.7-27.5 41.8 9.9 58.1-2.3 75.3-15.3 13.8-10.4 28.1-21.2 58-21.2s44.2 10.8 58 21.2c2.2 1.7 4.4 3.3 6.7 5l-177 148.3c-.5-1.4-1.1-2.8-1.7-4.2m36.3 65.7c-12.7-17.4-23.4-36.1-32.1-55.7 49.7-41.7 130.2-109.1 179.7-150.6 14 8.9 31.1 14.4 63.3 6.7.9 7 1.4 14.1 1.6 21.4-44.2 37.2-154.9 130-212.5 178.2m191.6-65.7c-10.7 26.8-25.2 51.9-43.2 74.9-19.6 25-43.4 47.4-70.7 66.6-27.3-19.2-51.1-41.6-70.7-66.6-1.1-1.4-2.1-2.8-3.2-4.1l208.9-175.1c-.4 34-7.6 70.6-21.1 104.3" class="st1"/><path d="M48.4 288.6c-13.8-34.4-21-71.7-21-106.3 0-9.4.6-18.6 1.7-27.5 41.8 9.9 58.1-2.3 75.3-15.3 13.8-10.4 28.1-21.2 58-21.2s44.2 10.8 58 21.2c2.2 1.7 4.4 3.3 6.7 5l-177 148.3c-.5-1.4-1.1-2.8-1.7-4.2" class="st2"/><path d="M276.3 288.6c-10.7 26.8-25.2 51.9-43.2 74.9-19.6 25-43.4 47.4-70.7 66.6-27.3-19.2-51.1-41.6-70.7-66.6-1.1-1.4-2.1-2.8-3.2-4.1l208.9-175.1c-.4 34-7.6 70.6-21.1 104.3" class="st3"/><path d="M124.8 307l-37.4-9.2 14.5 17.3c1.6 1.9 2.7 2.9 3.3 3 .6.1 1.7-.3 3.2-1.4l.4-.3 1.6 2-9.8 8.3-1.6-2 .4-.4c1.3-1.3 2-2.2 1.9-2.9 0-.6-.9-1.9-2.4-3.8l-16-19.1c-1.6-1.9-2.7-2.9-3.3-3.1-.6-.1-1.7.3-3.2 1.4l-.4.3-1.6-2 7.8-6.6 37.2 9.2-14.7-17.6c-1.6-1.9-2.7-2.9-3.3-3-.6-.2-1.7.3-3.2 1.4l-.4.3-1.6-2 9.8-8.3 1.6 2-.4.3c-1.3 1.3-2 2.3-2 2.9 0 .6.8 1.9 2.4 3.8l21.6 25.7-4.4 3.8zm64.9-57.2c-2.1 4-5 7.6-8.8 10.8-5.3 4.4-10.6 6.4-16 6-5.4-.4-10.2-3.2-14.6-8.4s-6.3-10.5-5.9-15.8c.5-5.3 3.3-10.1 8.6-14.5 3.2-2.7 7-5.1 11.3-7.1l5.4 6.5-3.1 2.6-.3-.4c-1.6-1.9-2.9-2.8-3.9-2.8-2.4 0-4.9 1.1-7.5 3.3-3.1 2.6-4.4 5.8-4 9.7.4 3.9 2.5 8.1 6.3 12.6 3.9 4.6 7.8 7.3 11.6 8.1 3.8.7 7.6-.5 11.4-3.6 2.6-2.2 4.9-5.5 7-9.8l2.5 2.8zm29.5-47.8l7.3 8.7c1.9 2 3 3.1 3.5 3.1.5.1 1.6-.6 3.5-2l.4-.3 1.6 2-13.9 11.6-1.6-2 .4-.4c1.3-1.3 2-2.2 1.9-2.9 0-.6-.9-1.9-2.4-3.8l-16-19.1c-1.6-1.9-2.7-2.9-3.3-3-.6-.1-1.7.3-3.2 1.4l-.4.3-1.6-2 23-19.3 4.9 5.9-3.1 2.6-.3-.4c-.6-.6-1-1.1-1.2-1.3-.7-.9-1.4-1.3-1.9-1.2-.6.1-1.5.6-2.8 1.8l-6.8 5.7 10.6 12.7 4.4-3.7c1.7-1.4 2.6-2.3 2.8-2.5.2-.3 0-.7-.4-1.3-.1-.1-.3-.4-.8-1l-.3-.4 2.2-1.9 5.7 6.8-2.4 1.9-.4-.3c-.4-.4-.6-.7-.8-.8-.5-.6-.9-.7-1.4-.6-.5.2-1.5.9-2.9 2.1l-4.3 3.6zm-159.7.5H43.8v-3.4l4.1-3.9c2.9-2.8 4.8-4.8 5.8-6.2 1.1-1.5 1.7-3 1.7-4.4 0-1-.4-1.9-1.1-2.6-.7-.7-1.8-1-3.1-1-.9 0-1.8.2-2.6.6-.7.4-1.7 1-2.8 1.9l-2.4-2.8c2.2-2.4 4.8-3.6 7.9-3.6 2.3 0 4.2.6 5.8 1.8 1.7 1.4 2.6 3.3 2.6 5.8 0 2-.7 4-2 5.9-1 1.5-2.9 3.7-5.7 6.5l-1.3 1.3h9v4.1zm21.9-8.6c0 2.5-.9 4.6-2.6 6.4-1.7 1.8-3.9 2.6-6.5 2.6s-4.8-.9-6.5-2.6c-1.7-1.8-2.6-3.9-2.6-6.4 0-1.4.3-2.8 1-4.2l5.6-12.1h4.7l-3.4 7.5c.5 0 .9-.1 1.2-.1 2.6 0 4.8.9 6.5 2.6 1.7 1.7 2.6 3.8 2.6 6.3zm-4.4 0c0-1.4-.5-2.6-1.4-3.6-.9-1-2-1.5-3.4-1.5-1.3 0-2.5.5-3.4 1.5-.9 1-1.4 2.2-1.4 3.6s.4 2.6 1.3 3.6c.9.9 2 1.4 3.4 1.4 1.3 0 2.5-.5 3.4-1.5 1-.9 1.5-2.1 1.5-3.5zm23.6 1.6H88.1v-3.9h12.4v3.9zm13.9 7h-4.4v-20.2l-4.4 1.8-1.8-3.7 7.1-3h3.4v25.1zm25.1-12.5c0 4.1-.8 7.3-2.5 9.6-1.7 2.2-4 3.4-6.9 3.4-3 0-5.3-1.1-6.9-3.4-1.7-2.2-2.5-5.4-2.5-9.5s.8-7.3 2.5-9.5c1.7-2.3 4-3.4 6.9-3.4 2.9 0 5.2 1.1 6.9 3.4 1.6 2.1 2.5 5.3 2.5 9.4zm-4.4 0c0-6-1.7-8.9-5-8.9-3.4 0-5 3-5 8.9 0 6 1.7 8.9 5 8.9s5-2.9 5-8.9zM172 338.4h-4.4v-20.2l-4.4 1.8-1.8-3.7 7.1-3h3.4v25.1zm24.7-16.4c0 1.4-.3 2.8-1 4.2l-5.6 12.1h-4.7l3.4-7.5c-.5 0-.9.1-1.2.1-2.6 0-4.8-.9-6.5-2.6-1.7-1.8-2.6-3.9-2.6-6.3 0-2.5.9-4.6 2.6-6.4 1.7-1.8 3.9-2.6 6.5-2.6s4.8.9 6.5 2.6c1.8 1.8 2.6 3.9 2.6 6.4zm-4.3 0c0-1.4-.4-2.6-1.3-3.6-.9-.9-2-1.4-3.4-1.4-1.3 0-2.5.5-3.4 1.5-.9 1-1.4 2.2-1.4 3.6s.5 2.6 1.4 3.6c.9 1 2 1.5 3.4 1.5 1.3 0 2.5-.5 3.4-1.5.8-1.1 1.3-2.3 1.3-3.7zm19.7 16.4h-4.4v-20.2l-4.4 1.8-1.8-3.7 7.1-3h3.4v25.1zm25-12.5c0 4.1-.8 7.3-2.5 9.6-1.7 2.2-4 3.4-6.9 3.4-3 0-5.3-1.1-6.9-3.4-1.7-2.2-2.5-5.4-2.5-9.5s.8-7.3 2.5-9.5c1.7-2.3 4-3.4 6.9-3.4 2.9 0 5.2 1.1 6.9 3.4 1.7 2.1 2.5 5.3 2.5 9.4zm-4.3 0c0-6-1.7-8.9-5-8.9-3.4 0-5 3-5 8.9 0 6 1.7 8.9 5 8.9 3.3.1 5-2.9 5-8.9zm-83.4-42.1c0 2.4-2 4.4-4.4 4.4-2.4 0-4.4-2-4.4-4.4 0-2.4 2-4.4 4.4-4.4 2.5 0 4.4 2 4.4 4.4m59-49.3c0 2.4-2 4.4-4.4 4.4-2.4 0-4.4-2-4.4-4.4 0-2.4 2-4.4 4.4-4.4 2.4 0 4.4 2 4.4 4.4m53.3-44.8c0 2.4-2 4.4-4.4 4.4-2.4 0-4.4-2-4.4-4.4 0-2.4 2-4.4 4.4-4.4 2.5.1 4.4 2 4.4 4.4M59.7 89.6c0 21.9 17.8 39.6 39.6 39.6 21.9 0 39.6-17.8 39.6-39.6C139 67.7 121.2 50 99.4 50c-21.9 0-39.7 17.7-39.7 39.6zm6.2 0c0-18.4 15-33.5 33.5-33.5 18.4 0 33.5 15 33.5 33.5 0 18.4-15 33.5-33.5 33.5-18.5-.1-33.5-15.1-33.5-33.5zm119.8 0c0 21.9 17.8 39.6 39.6 39.6 21.9 0 39.6-17.8 39.6-39.6 0-21.9-17.8-39.6-39.6-39.6s-39.6 17.7-39.6 39.6zm6.2 0c0-18.4 15-33.5 33.5-33.5 18.4 0 33.5 15 33.5 33.5 0 18.4-15 33.5-33.5 33.5-18.5-.1-33.5-15.1-33.5-33.5z" class="st1"/><path d="M127.5 38.7c-.7 0-1.4.4-1.8 1l-4.4 7.7c-.5.8-.3 1.8.3 2.5L160.9 91c.4.4.9.6 1.5.6h63c.8 0 1.5-.4 1.8-1.1.4-.7.3-1.5-.2-2.1l-34.8-48.8c-.4-.5-1-.9-1.7-.9h-63zm62 4.1c1.1 1.6 27.9 39.1 31.9 44.7h-58.1c-1.1-1.2-35.6-37.3-37.6-39.4.9-1.5 2.3-4.1 3.1-5.3h60.7z" class="st1"/><path d="M188.7 39.8l-28.2 48.8c-.6 1-.2 2.2.8 2.8 1 .6 2.2.2 2.8-.8l28.2-48.8c.6-1 .2-2.2-.8-2.8-.9-.6-2.2-.2-2.8.8zm-63 0L97.6 88.6c-.6 1-.2 2.2.8 2.8 1 .6 2.2.2 2.8-.8l28.2-48.8c.6-1 .2-2.2-.8-2.8-1-.6-2.3-.2-2.9.8z" class="st1"/><path d="M195.8 27.5l-24.3 42.1c-.6 1-.2 2.2.8 2.8 1 .6 2.2.2 2.8-.8l24.3-42.1c.6-1 .2-2.2-.8-2.8-1-.5-2.3-.1-2.8.8zm-61.7-2.2l-28.2 48.8c-.6 1-.2 2.2.8 2.8 1 .6 2.2.2 2.8-.8l28.2-48.8c.6-1 .2-2.2-.8-2.8-1-.6-2.2-.2-2.8.8z" class="st1"/><path d="M117.5 24.2c-6.2 0-11.2 5-11.2 11.2 0 6.2 5 11.2 11.2 11.2 1.1 0 2.1-.9 2.1-2.1 0-1.1-.9-2.1-2.1-2.1-3.9 0-7-3.2-7-7 0-3.9 3.2-7 7-7h18.4c1.1 0 2.1-.9 2.1-2.1 0-1.1-.9-2.1-2.1-2.1h-18.4zM98.9 54.8h1v34.8h-1zm0 34.8h1v34.8h-1z" class="st1"/><path d="M86.96493 57.03196l.9397-.342 11.9016 32.70156-.9397.342z" class="st1"/><path d="M98.86296 89.73305l.9397-.342 11.9016 32.70156-.9397.342z" class="st1"/><path d="M76.64992 63.27004l.766-.6428 22.36944 26.6568-.766.6428z" class="st1"/><path d="M98.9365 89.92705l.7661-.6428 22.36944 26.66028-.7661.6428z" class="st1"/><path d="M69 72.6L99.1 90l.5-.9-30.1-17.4z" class="st1"/><path d="M99.1 90l30.2 17.4.5-.9-30.2-17.4z" class="st1"/><path d="M65.02488 84.07056l.1736-.9848 34.27104 6.04128-.1736.9848z" class="st1"/><path d="M99.26276 90.08542l.1736-.9848 34.27104 6.04128-.1736.9848z" class="st1"/><path d="M64.97157 95.14309l34.26756-6.05868.1741.9847-34.26756 6.05868zm34.31482-6.01154l34.26756-6.06216.1742.9847-34.26756 6.06216z" class="st1"/><path d="M68.97398 106.53851l30.16464-17.35476.4987.8668-30.16464 17.35476z" class="st1"/><path d="M99.1 89.1l.5.9 30.2-17.4-.5-.9z" class="st1"/><path d="M76.60886 115.89908l22.36248-26.66376.7662.6426-22.36248 26.66376z" class="st1"/><path d="M98.90018 89.26956l22.36944-26.6568.766.6428-22.36944 26.6568z" class="st1"/><path d="M86.94338 122.12756L98.8415 89.426l.9397.3419-11.89812 32.70156zm11.912-32.70652l11.91552-32.69808.9396.3424-11.91552 32.69808zM224.8 54.8h1v34.8h-1zm0 34.8h1v34.8h-1z" class="st1"/><path d="M212.96643 57.03516l.9397-.342 11.9016 32.70156-.9397.342z" class="st1"/><path d="M224.86406 89.73025l.9397-.342 11.9016 32.70156-.9397.342z" class="st1"/><path d="M202.65691 63.26057l.766-.6429 22.37292 26.6568-.766.6429z" class="st1"/><path d="M224.92685 89.93125l.7661-.6427 22.36596 26.66028-.7661.6427z" class="st1"/><path d="M194.9775 72.618l.5-.866 30.1368 17.4-.5.866zm30.1196 17.4404l.5-.866 30.1368 17.4-.5.866z" class="st1"/><path d="M191 84.1l34.3 6 .1-1-34.2-6.1z" class="st1"/><path d="M225.3 90.1l34.2 6 .2-1-34.3-6z" class="st1"/><path d="M191 95.1l.2 1 34.2-6-.1-1zm34.3-6l.1 1 34.3-6-.2-1.1z" class="st1"/><path d="M194.97712 106.53054l30.1716-17.34432.4984.867-30.1716 17.34432z" class="st1"/><path d="M225.09892 89.17218l30.14376-17.39304.4998.8662-30.14376 17.39304z" class="st1"/><path d="M202.58632 115.88966l22.3764-26.64984.7658.643-22.3764 26.64984z" class="st1"/><path d="M224.8998 89.2597l22.36248-26.66376.7662.6426L225.666 89.9023z" class="st1"/><path d="M212.93234 122.10772l11.91204-32.69808.9396.3423-11.91204 32.69808z" class="st1"/><path d="M224.9 89.4l.9.4 11.9-32.7-.9-.4z" class="st1"/><path d="M231.7 89.6c0 3.5-2.8 6.4-6.4 6.4-3.5 0-6.4-2.8-6.4-6.4 0-3.5 2.8-6.4 6.4-6.4 3.6 0 6.4 2.9 6.4 6.4m-128.7 0c0 2-1.6 3.6-3.6 3.6s-3.6-1.6-3.6-3.6 1.6-3.6 3.6-3.6 3.6 1.6 3.6 3.6m106.7-62.3c-1 1.7-4.1 3.1-7 3.1h-5.5c-2.8 0-5.8-.5-6.6-1-.8-.6-3.5-1-6.1-1-2.6 0-4.1-.9-3.3-2.1.7-1.1 3.6-2.1 6.4-2.1h21.1c1.6 0 2 1.4 1 3.1m-48.9 45.1h3.1v34.8h-3.1z" class="st1"/><path d="M158.5 70.9h7.7v3h-7.7zm0 34.9h7.7v3h-7.7zm3.9-29.3c-7.2 0-13 5.9-13 13 0 7.2 5.9 13 13 13 7.2 0 13-5.9 13-13s-5.8-13-13-13zm0 22.5c-5.2 0-9.4-4.2-9.4-9.4s4.2-9.4 9.4-9.4 9.4 4.2 9.4 9.4-4.2 9.4-9.4 9.4z" class="st1"/><path d="M162.4 80.2c-5.2 0-9.4 4.2-9.4 9.4s4.2 9.4 9.4 9.4 9.4-4.2 9.4-9.4-4.2-9.4-9.4-9.4zm0-1.6v22m-7.8-18.8l15.5 15.6m-18.7-7.8h21.9m-18.7 7.8l15.5-15.6" class="st0"/><path d="M173.3 90.7v-2.3H167c-.1-.5-.3-.9-.5-1.3l4.5-4.5-1.6-1.6-4.5 4.5c-.4-.2-.8-.4-1.3-.5v-6.4h-2.3V85c-.5.1-.9.3-1.3.5l-4.5-4.5-1.6 1.6 4.5 4.5c-.2.4-.4.8-.5 1.3h-6.4v2.3h6.4c.1.5.3.9.5 1.3l-4.5 4.5 1.6 1.6 4.5-4.5c.4.2.8.4 1.3.5v6.4h2.3v-6.4c.5-.1.9-.3 1.3-.5l4.5 4.5 1.6-1.6-4.5-4.5c.2-.4.4-.8.5-1.3h6.3z" class="st1"/><path d="M161.3 78.5c-.1.6.4 1.1.9 1.1l63 6.1c.6.1 1.1-.4 1.1-.9.1-.6-.4-1.1-.9-1.1l-63-6.1c-.5-.1-1 .3-1.1.9zm64 15.4l-63 5.6c-.6.1-1 .6-.9 1.1.1.6.6 1 1.1.9l63-5.6c.6-.1 1-.6.9-1.1-.1-.5-.6-.9-1.1-.9z" class="st1"/></g></svg>